<?xml version="1.0" encoding="UTF-8"?>
<svg width="400" height="690" viewBox="0 0 400 690" xmlns="http://www.w3.org/2000/svg">

<defs>
  <marker id="arr1" viewBox="0 0 10 10" refX="8" refY="5" markerWidth="5" markerHeight="5" orient="auto-start-reverse">
    <path d="M2 1L8 5L2 9" fill="none" stroke="#BA7517" stroke-width="1.5" stroke-linecap="round"/>
  </marker>
</defs>

<!-- background -->
<rect width="400" height="690" fill="#f7f8f1" rx="16"/>

<!-- section label: Players Gather -->
<text x="200" y="28" text-anchor="middle" font-family="'Helvetica Neue',Helvetica,Arial,sans-serif" font-size="11" font-weight="700" fill="#6F7634" letter-spacing="1" text-transform="uppercase">PLAYERS GATHER</text>

<!-- top player row -->
<circle cx="40" cy="62" r="12" fill="white" stroke="#6F7634" stroke-width="1.5"/>
<circle cx="40" cy="57" r="4.5" fill="#6F7634" opacity="0.7"/>
<path d="M34 70 Q34 65 40 65 Q46 65 46 70" fill="#6F7634" opacity="0.4" stroke="none"/>
<circle cx="80" cy="62" r="12" fill="white" stroke="#BA7517" stroke-width="1.5"/>
<circle cx="80" cy="57" r="4.5" fill="#BA7517" opacity="0.7"/>
<path d="M74 70 Q74 65 80 65 Q86 65 86 70" fill="#BA7517" opacity="0.4" stroke="none"/>
<circle cx="120" cy="62" r="12" fill="white" stroke="#6F7634" stroke-width="1.5"/>
<circle cx="120" cy="57" r="4.5" fill="#6F7634" opacity="0.7"/>
<path d="M114 70 Q114 65 120 65 Q126 65 126 70" fill="#6F7634" opacity="0.4" stroke="none"/>
<circle cx="160" cy="62" r="12" fill="white" stroke="#BA7517" stroke-width="1.5"/>
<circle cx="160" cy="57" r="4.5" fill="#BA7517" opacity="0.7"/>
<path d="M154 70 Q154 65 160 65 Q166 65 166 70" fill="#BA7517" opacity="0.4" stroke="none"/>
<circle cx="200" cy="62" r="12" fill="white" stroke="#6F7634" stroke-width="1.5"/>
<circle cx="200" cy="57" r="4.5" fill="#6F7634" opacity="0.7"/>
<path d="M194 70 Q194 65 200 65 Q206 65 206 70" fill="#6F7634" opacity="0.4" stroke="none"/>
<circle cx="240" cy="62" r="12" fill="white" stroke="#BA7517" stroke-width="1.5"/>
<circle cx="240" cy="57" r="4.5" fill="#BA7517" opacity="0.7"/>
<path d="M234 70 Q234 65 240 65 Q246 65 246 70" fill="#BA7517" opacity="0.4" stroke="none"/>
<circle cx="280" cy="62" r="12" fill="white" stroke="#6F7634" stroke-width="1.5"/>
<circle cx="280" cy="57" r="4.5" fill="#6F7634" opacity="0.7"/>
<path d="M274 70 Q274 65 280 65 Q286 65 286 70" fill="#6F7634" opacity="0.4" stroke="none"/>
<circle cx="320" cy="62" r="12" fill="white" stroke="#BA7517" stroke-width="1.5"/>
<circle cx="320" cy="57" r="4.5" fill="#BA7517" opacity="0.7"/>
<path d="M314 70 Q314 65 320 65 Q326 65 326 70" fill="#BA7517" opacity="0.4" stroke="none"/>
<circle cx="360" cy="62" r="12" fill="white" stroke="#6F7634" stroke-width="1.5"/>
<circle cx="360" cy="57" r="4.5" fill="#6F7634" opacity="0.7"/>
<path d="M354 70 Q354 65 360 65 Q366 65 366 70" fill="#6F7634" opacity="0.4" stroke="none"/>

<!-- gathering label -->
<text x="200" y="90" text-anchor="middle" font-family="Helvetica,Arial,sans-serif" font-size="9" fill="#aaa">players join individually</text>

<!-- section divider -->
<line x1="40" y1="100" x2="360" y2="100" stroke="#e0e0d4" stroke-width="1"/>

<!-- section label: TournaQ Shuffles -->
<text x="200" y="120" text-anchor="middle" font-family="'Helvetica Neue',Helvetica,Arial,sans-serif" font-size="11" font-weight="700" fill="#BA7517" letter-spacing="1">TOURNAQ SHUFFLES TEAMS EACH ROUND</text>

<!-- funnel guides -->
<line x1="40" y1="90" x2="120" y2="184" stroke="#ccc" stroke-width="0.6" stroke-dasharray="3 3"/>
<line x1="340" y1="90" x2="260" y2="184" stroke="#ccc" stroke-width="0.6" stroke-dasharray="3 3"/>

<!-- all-to-all lines (ring) -->
<line x1="190.0" y1="206.0" x2="273.4" y2="240.6" stroke="#cccccc" stroke-width="0.8" opacity="0.6"/>
<line x1="190.0" y1="206.0" x2="308.0" y2="324.0" stroke="#cccccc" stroke-width="0.8" opacity="0.6"/>
<line x1="190.0" y1="206.0" x2="273.4" y2="407.4" stroke="#cccccc" stroke-width="0.8" opacity="0.6"/>
<line x1="190.0" y1="206.0" x2="190.0" y2="442.0" stroke="#cccccc" stroke-width="0.8" opacity="0.6"/>
<line x1="190.0" y1="206.0" x2="106.6" y2="407.4" stroke="#cccccc" stroke-width="0.8" opacity="0.6"/>
<line x1="190.0" y1="206.0" x2="72.0" y2="324.0" stroke="#cccccc" stroke-width="0.8" opacity="0.6"/>
<line x1="190.0" y1="206.0" x2="106.6" y2="240.6" stroke="#cccccc" stroke-width="0.8" opacity="0.6"/>
<line x1="273.4" y1="240.6" x2="308.0" y2="324.0" stroke="#cccccc" stroke-width="0.8" opacity="0.6"/>
<line x1="273.4" y1="240.6" x2="273.4" y2="407.4" stroke="#cccccc" stroke-width="0.8" opacity="0.6"/>
<line x1="273.4" y1="240.6" x2="190.0" y2="442.0" stroke="#cccccc" stroke-width="0.8" opacity="0.6"/>
<line x1="273.4" y1="240.6" x2="106.6" y2="407.4" stroke="#cccccc" stroke-width="0.8" opacity="0.6"/>
<line x1="273.4" y1="240.6" x2="72.0" y2="324.0" stroke="#cccccc" stroke-width="0.8" opacity="0.6"/>
<line x1="273.4" y1="240.6" x2="106.6" y2="240.6" stroke="#cccccc" stroke-width="0.8" opacity="0.6"/>
<line x1="308.0" y1="324.0" x2="273.4" y2="407.4" stroke="#cccccc" stroke-width="0.8" opacity="0.6"/>
<line x1="308.0" y1="324.0" x2="190.0" y2="442.0" stroke="#cccccc" stroke-width="0.8" opacity="0.6"/>
<line x1="308.0" y1="324.0" x2="106.6" y2="407.4" stroke="#cccccc" stroke-width="0.8" opacity="0.6"/>
<line x1="308.0" y1="324.0" x2="72.0" y2="324.0" stroke="#cccccc" stroke-width="0.8" opacity="0.6"/>
<line x1="308.0" y1="324.0" x2="106.6" y2="240.6" stroke="#cccccc" stroke-width="0.8" opacity="0.6"/>
<line x1="273.4" y1="407.4" x2="190.0" y2="442.0" stroke="#cccccc" stroke-width="0.8" opacity="0.6"/>
<line x1="273.4" y1="407.4" x2="106.6" y2="407.4" stroke="#cccccc" stroke-width="0.8" opacity="0.6"/>
<line x1="273.4" y1="407.4" x2="72.0" y2="324.0" stroke="#cccccc" stroke-width="0.8" opacity="0.6"/>
<line x1="273.4" y1="407.4" x2="106.6" y2="240.6" stroke="#cccccc" stroke-width="0.8" opacity="0.6"/>
<line x1="190.0" y1="442.0" x2="106.6" y2="407.4" stroke="#cccccc" stroke-width="0.8" opacity="0.6"/>
<line x1="190.0" y1="442.0" x2="72.0" y2="324.0" stroke="#cccccc" stroke-width="0.8" opacity="0.6"/>
<line x1="190.0" y1="442.0" x2="106.6" y2="240.6" stroke="#cccccc" stroke-width="0.8" opacity="0.6"/>
<line x1="106.6" y1="407.4" x2="72.0" y2="324.0" stroke="#cccccc" stroke-width="0.8" opacity="0.6"/>
<line x1="106.6" y1="407.4" x2="106.6" y2="240.6" stroke="#cccccc" stroke-width="0.8" opacity="0.6"/>
<line x1="72.0" y1="324.0" x2="106.6" y2="240.6" stroke="#cccccc" stroke-width="0.8" opacity="0.6"/>

<!-- outer ring guide -->
<circle cx="190" cy="324" r="118" fill="none" stroke="#6F7634" stroke-width="1" stroke-opacity="0.3" stroke-dasharray="5 4"/>

<!-- rotation arc -->
<path d="M 110 226 A 118 118 0 0 1 265 256" fill="none" stroke="#BA7517" stroke-width="2" stroke-opacity="0.6" stroke-dasharray="6 4" marker-end="url(#arr1)"/>

<!-- player nodes on ring -->
<circle cx="190.0" cy="206.0" r="16" fill="white" stroke="#6F7634" stroke-width="1.8"/>
<circle cx="190.0" cy="200.0" r="5.5" fill="#6F7634" opacity="0.7"/>
<path d="M182.0 219.0 Q182.0 212.0 190.0 212.0 Q198.0 212.0 198.0 219.0" fill="#6F7634" opacity="0.45" stroke="none"/>
<text x="190.0" y="189.0" text-anchor="middle" font-family="'Helvetica Neue',Arial,sans-serif" font-size="11" font-weight="700" fill="#6F7634">P1</text>

<circle cx="273.4" cy="240.6" r="16" fill="white" stroke="#BA7517" stroke-width="1.8"/>
<circle cx="273.4" cy="234.6" r="5.5" fill="#BA7517" opacity="0.7"/>
<path d="M265.4 253.6 Q265.4 246.6 273.4 246.6 Q281.4 246.6 281.4 253.6" fill="#BA7517" opacity="0.45" stroke="none"/>
<text x="297.4" y="244.6" text-anchor="start" font-family="'Helvetica Neue',Arial,sans-serif" font-size="11" font-weight="700" fill="#BA7517">P2</text>

<circle cx="308.0" cy="324.0" r="16" fill="white" stroke="#6F7634" stroke-width="1.8"/>
<circle cx="308.0" cy="318.0" r="5.5" fill="#6F7634" opacity="0.7"/>
<path d="M300.0 337.0 Q300.0 330.0 308.0 330.0 Q316.0 330.0 316.0 337.0" fill="#6F7634" opacity="0.45" stroke="none"/>
<text x="332.0" y="328.0" text-anchor="start" font-family="'Helvetica Neue',Arial,sans-serif" font-size="11" font-weight="700" fill="#6F7634">P3</text>

<circle cx="273.4" cy="407.4" r="16" fill="white" stroke="#BA7517" stroke-width="1.8"/>
<circle cx="273.4" cy="401.4" r="5.5" fill="#BA7517" opacity="0.7"/>
<path d="M265.4 420.4 Q265.4 413.4 273.4 413.4 Q281.4 413.4 281.4 420.4" fill="#BA7517" opacity="0.45" stroke="none"/>
<text x="297.4" y="411.4" text-anchor="start" font-family="'Helvetica Neue',Arial,sans-serif" font-size="11" font-weight="700" fill="#BA7517">P4</text>

<circle cx="190.0" cy="442.0" r="16" fill="white" stroke="#6F7634" stroke-width="1.8"/>
<circle cx="190.0" cy="436.0" r="5.5" fill="#6F7634" opacity="0.7"/>
<path d="M182.0 455.0 Q182.0 448.0 190.0 448.0 Q198.0 448.0 198.0 455.0" fill="#6F7634" opacity="0.45" stroke="none"/>
<text x="190.0" y="472.0" text-anchor="middle" font-family="'Helvetica Neue',Arial,sans-serif" font-size="11" font-weight="700" fill="#6F7634">P5</text>

<circle cx="106.6" cy="407.4" r="16" fill="white" stroke="#BA7517" stroke-width="1.8"/>
<circle cx="106.6" cy="401.4" r="5.5" fill="#BA7517" opacity="0.7"/>
<path d="M98.6 420.4 Q98.6 413.4 106.6 413.4 Q114.6 413.4 114.6 420.4" fill="#BA7517" opacity="0.45" stroke="none"/>
<text x="82.6" y="411.4" text-anchor="end" font-family="'Helvetica Neue',Arial,sans-serif" font-size="11" font-weight="700" fill="#BA7517">P6</text>

<circle cx="72.0" cy="324.0" r="16" fill="white" stroke="#6F7634" stroke-width="1.8"/>
<circle cx="72.0" cy="318.0" r="5.5" fill="#6F7634" opacity="0.7"/>
<path d="M64.0 337.0 Q64.0 330.0 72.0 330.0 Q80.0 330.0 80.0 337.0" fill="#6F7634" opacity="0.45" stroke="none"/>
<text x="48.0" y="328.0" text-anchor="end" font-family="'Helvetica Neue',Arial,sans-serif" font-size="11" font-weight="700" fill="#6F7634">P7</text>

<circle cx="106.6" cy="240.6" r="16" fill="white" stroke="#BA7517" stroke-width="1.8"/>
<circle cx="106.6" cy="234.6" r="5.5" fill="#BA7517" opacity="0.7"/>
<path d="M98.6 253.6 Q98.6 246.6 106.6 246.6 Q114.6 246.6 114.6 253.6" fill="#BA7517" opacity="0.45" stroke="none"/>
<text x="82.6" y="244.6" text-anchor="end" font-family="'Helvetica Neue',Arial,sans-serif" font-size="11" font-weight="700" fill="#BA7517">P8</text>

<!-- TQ center hub -->
<circle cx="190" cy="324" r="32" fill="white" stroke="#BA7517" stroke-width="1.5" stroke-opacity="0.8"/>
<circle cx="190" cy="324" r="29" fill="none" stroke="#6F7634" stroke-width="0.5" stroke-opacity="0.4"/>
<text x="190" y="321" text-anchor="middle" dominant-baseline="central"
  font-family="'Helvetica Neue',Arial,sans-serif" font-size="14" font-weight="800"
  fill="#BA7517" letter-spacing="2">TQ</text>
<text x="190" y="337" text-anchor="middle" dominant-baseline="central"
  font-family="'Helvetica Neue',Arial,sans-serif" font-size="5.5" font-weight="600"
  fill="#6F7634" letter-spacing="2" opacity="0.9">TOURNAQ</text>

<!-- section divider -->
<line x1="40" y1="490" x2="360" y2="490" stroke="#e0e0d4" stroke-width="1"/>

<!-- section label: Play. Connect. Compete. -->
<text x="200" y="512" text-anchor="middle" font-family="'Helvetica Neue',Helvetica,Arial,sans-serif" font-size="11" font-weight="700" fill="#6F7634" letter-spacing="1">PLAY. CONNECT. COMPETE.</text>

<!-- bottom ranking lines -->
<line x1="50" y1="558" x2="120" y2="538" stroke="#6F7634" stroke-width="0.8" opacity="0.4"/>
<line x1="120" y1="538" x2="190" y2="548" stroke="#BA7517" stroke-width="0.8" opacity="0.4"/>
<line x1="190" y1="548" x2="260" y2="533" stroke="#6F7634" stroke-width="0.8" opacity="0.4"/>
<line x1="260" y1="533" x2="330" y2="546" stroke="#BA7517" stroke-width="0.8" opacity="0.4"/>
<line x1="50" y1="558" x2="190" y2="548" stroke="#6F7634" stroke-width="0.6" opacity="0.25"/>
<line x1="120" y1="538" x2="260" y2="533" stroke="#BA7517" stroke-width="0.6" opacity="0.25"/>
<line x1="190" y1="548" x2="330" y2="546" stroke="#6F7634" stroke-width="0.6" opacity="0.25"/>
<line x1="50" y1="558" x2="330" y2="546" stroke="#BA7517" stroke-width="0.5" opacity="0.18"/>

<!-- bottom player nodes -->
<circle cx="50"  cy="558" r="11" fill="white" stroke="#6F7634" stroke-width="1.5"/>
<circle cx="50"  cy="553" r="4"  fill="#6F7634" opacity="0.7"/>
<circle cx="120" cy="538" r="11" fill="white" stroke="#BA7517" stroke-width="1.5"/>
<circle cx="120" cy="533" r="4"  fill="#BA7517" opacity="0.7"/>

<!-- #1 player highlighted -->
<circle cx="190" cy="548" r="13" fill="white" stroke="#BA7517" stroke-width="2"/>
<circle cx="190" cy="543" r="4.5" fill="#BA7517" opacity="0.8"/>
<rect x="178" y="524" width="24" height="13" rx="4" fill="#BA7517"/>
<text x="190" y="532" text-anchor="middle" dominant-baseline="central"
  font-family="Helvetica,Arial,sans-serif" font-size="7" font-weight="700" fill="white">#1</text>

<circle cx="260" cy="533" r="11" fill="white" stroke="#6F7634" stroke-width="1.5"/>
<circle cx="260" cy="528" r="4"  fill="#6F7634" opacity="0.7"/>
<circle cx="330" cy="546" r="11" fill="white" stroke="#BA7517" stroke-width="1.5"/>
<circle cx="330" cy="541" r="4"  fill="#BA7517" opacity="0.7"/>

<!-- player labels below -->
<text x="50"  y="577" text-anchor="middle" font-family="Helvetica,Arial,sans-serif" font-size="9" fill="#888">P3</text>
<text x="120" y="557" text-anchor="middle" font-family="Helvetica,Arial,sans-serif" font-size="9" fill="#888">P7</text>
<text x="190" y="570" text-anchor="middle" font-family="Helvetica,Arial,sans-serif" font-size="9" font-weight="700" fill="#BA7517">P2 · TOP</text>
<text x="260" y="552" text-anchor="middle" font-family="Helvetica,Arial,sans-serif" font-size="9" fill="#888">P5</text>
<text x="330" y="565" text-anchor="middle" font-family="Helvetica,Arial,sans-serif" font-size="9" fill="#888">P6</text>

<!-- live rankings label -->
<text x="200" y="590" text-anchor="middle" font-family="Helvetica,Arial,sans-serif" font-size="9" fill="#aaa">live rankings after every round</text>

</svg>
